<svg width="114" height="31" viewBox="0 0 114 31" fill="none" xmlns="http://www.w3.org/2000/svg">
<path d="M39.7754 22.3279H43.273V16.332H44.7938L48.5086 22.3279H52.2452L48.1393 15.7237C49.9642 15.1806 51.3328 13.9422 51.3328 11.596V11.5091C51.3328 8.29393 49.0083 6.79492 45.3369 6.79492H39.7754V22.3279ZM43.273 13.9422V9.48878H45.25C46.9445 9.48878 47.9004 10.0319 47.9004 11.6177V11.7047C47.9004 13.2037 47.0097 13.9422 45.25 13.9422H43.273Z" fill="#F8F8F8" fill-opacity="0.3"/>
<path d="M58.2485 22.5668C61.355 22.5668 63.3102 21.1982 63.6795 18.7433H60.7033C60.5078 19.6992 59.7909 20.3293 58.3354 20.3293C56.6191 20.3293 55.5981 19.243 55.5112 17.353H63.7013V16.484C63.7013 12.4215 61.0944 10.7053 58.1615 10.7053C54.8594 10.7053 52.3176 13.0298 52.3176 16.6144V16.7881C52.3176 20.4162 54.816 22.5668 58.2485 22.5668ZM55.5546 15.4195C55.7936 13.8119 56.7494 12.8778 58.1615 12.8778C59.6606 12.8778 60.5295 13.7033 60.6382 15.4195H55.5546Z" fill="#F8F8F8" fill-opacity="0.3"/>
<path d="M65.1987 22.328H68.3271V5.81738H65.1987V22.328Z" fill="#F8F8F8" fill-opacity="0.3"/>
<path d="M74.3288 22.5672C76.1973 22.5672 77.3483 21.6982 77.9348 20.5468V22.3282H81.0632V10.9663H77.9348V17.6357C77.9348 19.3086 76.892 20.134 75.5673 20.134C74.2206 20.134 73.5899 19.3954 73.5899 17.853V10.9663H70.4619V18.2875C70.4619 21.2637 72.1129 22.5672 74.3288 22.5672Z" fill="#F8F8F8" fill-opacity="0.3"/>
<path d="M83.1992 22.3279H86.3497V15.6151C86.3497 14.0726 87.327 13.2905 88.5435 13.2905C89.6518 13.2905 90.3252 13.9422 90.3252 15.3978V22.3279H93.4536V15.6151C93.4536 14.0726 94.4309 13.2905 95.6474 13.2905C96.7771 13.2905 97.4291 13.9422 97.4291 15.3978V22.3279H100.558V15.0502C100.558 12.0305 98.9282 10.7053 96.8205 10.7053C95.3869 10.7053 93.9099 11.3136 92.9974 12.6822C92.4542 11.3353 91.3246 10.7053 89.8255 10.7053C88.1307 10.7053 86.9142 11.6394 86.3497 12.704V10.966H83.1992V22.3279Z" fill="#F8F8F8" fill-opacity="0.3"/>
<path d="M107.831 22.3747C110.938 22.3747 112.894 21.0061 113.262 18.5512H110.286C110.091 19.5071 109.374 20.1371 107.918 20.1371C106.202 20.1371 105.181 19.0509 105.094 17.1609H113.284V16.2919C113.284 12.2294 110.677 10.5132 107.744 10.5132C104.442 10.5132 101.9 12.8377 101.9 16.4222V16.596C101.9 20.224 104.399 22.3747 107.831 22.3747ZM105.138 15.2274C105.377 13.6198 106.333 12.6856 107.744 12.6856C109.243 12.6856 110.113 13.5111 110.222 15.2274H105.138Z" fill="#F8F8F8" fill-opacity="0.3"/>
<path fill-rule="evenodd" clip-rule="evenodd" d="M27.7382 7.72429L27.527 7.34713C27.2546 6.891 26.8704 6.51193 26.4107 6.24581L16.2876 0.407336C15.8292 0.141445 15.3089 0.000956705 14.779 0H14.3415C13.8115 0.000956705 13.2912 0.141445 12.8328 0.407336L2.70984 6.2609C2.25269 6.52525 1.87293 6.90506 1.60854 7.36222L1.39733 7.73938C1.13142 8.19771 0.990932 8.71809 0.98999 9.24796V20.94C0.990932 21.4699 1.13142 21.9902 1.39733 22.4487L1.60854 22.8258C1.87977 23.2777 2.25799 23.6559 2.70984 23.9271L12.8479 29.7655C13.304 30.0369 13.8259 30.1779 14.3566 30.1729H14.779C15.3089 30.1719 15.8292 30.0314 16.2876 29.7655L26.4107 23.912C26.8723 23.6536 27.2535 23.2724 27.5119 22.8107L27.7382 22.4336C28.0009 21.9738 28.1412 21.4543 28.1456 20.9249V9.23287C28.1447 8.703 28.0042 8.18263 27.7382 7.72429ZM14.3415 3.01723H14.779L23.6197 8.11647L14.5678 13.3363L5.51594 8.11647L14.3415 3.01723ZM16.0764 26.4014L24.902 21.3021L25.1283 20.925V10.7266L16.0764 15.9615V26.4014Z" fill="#F8F8F8" fill-opacity="0.3"/>
</svg>
