<svg width="496" height="596" viewBox="0 0 496 596" fill="none" xmlns="http://www.w3.org/2000/svg">
<path d="M1.98462 273.772L7.90097 273.233C84.0072 266.37 160.749 273.51 234.191 294.287V294.287" stroke="url(#paint0_linear_37_254)" stroke-opacity="0.35" stroke-miterlimit="10"/>
<path d="M5.42529 247.314H11.3416C87.7846 247.175 163.583 261.046 234.848 288.216V288.216" stroke="url(#paint1_linear_37_254)" stroke-opacity="0.35" stroke-miterlimit="10"/>
<path d="M11.2325 221.267L17.1489 221.783C93.2834 228.378 167.499 248.863 235.988 282.189V282.189" stroke="url(#paint2_linear_37_254)" stroke-opacity="0.35" stroke-miterlimit="10"/>
<path d="M19.4288 195.843L25.2575 196.876C100.519 210.14 172.602 237.079 237.808 276.312V276.312" stroke="url(#paint3_linear_37_254)" stroke-opacity="0.35" stroke-miterlimit="10"/>
<path d="M29.8795 171.237L35.5987 172.766C109.307 192.621 178.602 225.801 239.932 270.607V270.607" stroke="url(#paint4_linear_37_254)" stroke-opacity="0.35" stroke-miterlimit="10"/>
<path d="M42.5481 147.644L48.1139 149.796C119.713 176.058 185.701 215.203 242.696 265.225V265.225" stroke="url(#paint5_linear_37_254)" stroke-opacity="0.35" stroke-miterlimit="10"/>
<path d="M57.3136 125.277L62.6602 127.86C131.581 160.321 193.735 205.124 245.936 259.972V259.972" stroke="url(#paint6_linear_37_254)" stroke-opacity="0.35" stroke-miterlimit="10"/>
<path d="M74.0774 104.288L79.1611 107.258C144.838 145.661 202.652 195.757 249.64 254.978V254.978" stroke="url(#paint7_linear_37_254)" stroke-opacity="0.35" stroke-miterlimit="10"/>
<path d="M92.6597 84.8053L97.4585 88.2066C159.371 132.239 212.385 187.227 253.782 250.35V250.35" stroke="url(#paint8_linear_37_254)" stroke-opacity="0.35" stroke-miterlimit="10"/>
<path d="M112.951 67.1532L117.333 70.985C174.982 120.279 222.765 179.706 258.23 246.217V246.217" stroke="url(#paint9_linear_37_254)" stroke-opacity="0.35" stroke-miterlimit="10"/>
<path d="M134.798 51.3094L138.852 55.5073C191.765 109.686 233.929 173.084 263.183 242.449V242.449" stroke="url(#paint10_linear_37_254)" stroke-opacity="0.35" stroke-miterlimit="10"/>
<path d="M157.982 37.4454L161.685 41.9877C209.439 100.613 245.651 167.471 268.464 239.134V239.134" stroke="url(#paint11_linear_37_254)" stroke-opacity="0.35" stroke-miterlimit="10"/>
<path d="M182.347 25.6702L185.612 30.5353C227.825 93.1291 257.788 162.907 273.963 236.292V236.292" stroke="url(#paint12_linear_37_254)" stroke-opacity="0.35" stroke-miterlimit="10"/>
<path d="M207.678 16.0907L210.483 21.2142C246.819 87.2726 270.294 159.41 279.705 233.924" stroke="url(#paint13_linear_37_254)" stroke-opacity="0.35" stroke-miterlimit="10"/>
<path d="M233.777 8.79321L236.121 14.1535C266.275 83.1457 283.077 157.055 285.665 232.095V232.095" stroke="url(#paint14_linear_37_254)" stroke-opacity="0.35" stroke-miterlimit="10"/>
<path d="M260.444 3.82031L262.285 9.46044C286.029 80.8294 296.016 155.923 291.735 230.889V230.889" stroke="url(#paint15_linear_37_254)" stroke-opacity="0.35" stroke-miterlimit="10"/>
<path d="M287.462 1.2157L288.777 6.87735C305.918 80.056 309.017 155.733 297.914 230.028V230.028" stroke="url(#paint16_linear_37_254)" stroke-opacity="0.35" stroke-miterlimit="10"/>
<path d="M314.61 1L315.399 6.76929C325.788 81.1586 321.968 156.799 304.135 229.813V229.813" stroke="url(#paint17_linear_37_254)" stroke-opacity="0.35" stroke-miterlimit="10"/>
<path d="M341.65 3.17432L341.935 8.98666C345.492 83.9903 334.784 158.988 310.359 230.136V230.136" stroke="url(#paint18_linear_37_254)" stroke-opacity="0.35" stroke-miterlimit="10"/>
<path d="M368.406 7.71667L368.143 13.529C364.848 88.5274 347.34 162.264 316.517 230.954V230.954" stroke="url(#paint19_linear_37_254)" stroke-opacity="0.35" stroke-miterlimit="10"/>
<path d="M394.634 14.6055L393.845 20.3748C383.708 94.7982 359.543 166.714 322.586 232.439V232.439" stroke="url(#paint20_linear_37_254)" stroke-opacity="0.35" stroke-miterlimit="10"/>
<path d="M420.117 23.776L418.802 29.4377C401.926 102.673 371.295 172.175 328.479 234.377V234.377" stroke="url(#paint21_linear_37_254)" stroke-opacity="0.35" stroke-miterlimit="10"/>
<path d="M444.661 35.1425L442.843 40.6749C419.346 112.122 382.503 178.643 334.201 236.831V236.831" stroke="url(#paint22_linear_37_254)" stroke-opacity="0.35" stroke-miterlimit="10"/>
<path d="M468.087 48.6395L465.764 53.9783C435.856 123.084 393.089 186.102 339.658 239.801V239.801" stroke="url(#paint23_linear_37_254)" stroke-opacity="0.35" stroke-miterlimit="10"/>
<path d="M490.174 64.118L487.369 69.263C451.272 135.442 402.933 194.43 344.829 243.203V243.203" stroke="url(#paint24_linear_37_254)" stroke-opacity="0.35" stroke-miterlimit="10"/>
<path d="M510.75 81.5117L507.507 86.3769C465.528 149.096 412.026 203.585 349.737 247.056V247.056" stroke="url(#paint25_linear_37_254)" stroke-opacity="0.35" stroke-miterlimit="10"/>
<path d="M529.682 100.628L525.979 105.192C478.435 163.979 420.144 213.536 354.098 251.318V251.318" stroke="url(#paint26_linear_37_254)" stroke-opacity="0.35" stroke-miterlimit="10"/>
<path d="M546.773 121.402L542.675 125.707C489.958 180.073 427.379 224.3 358.151 256.119V256.119" stroke="url(#paint27_linear_37_254)" stroke-opacity="0.35" stroke-miterlimit="10"/>
<path d="M561.912 143.467L557.376 147.234C499.908 196.73 433.547 235.263 361.698 260.855V260.855" stroke="url(#paint28_linear_37_254)" stroke-opacity="0.35" stroke-miterlimit="10"/>
<path d="M574.91 166.846L570.111 170.29C508.356 214.524 438.75 247.062 364.858 266.237V266.237" stroke="url(#paint29_linear_37_254)" stroke-opacity="0.35" stroke-miterlimit="10"/>
<path d="M585.866 191.3L580.782 194.293C515.238 232.914 442.942 259.195 367.596 271.791V271.791" stroke="url(#paint30_linear_37_254)" stroke-opacity="0.35" stroke-miterlimit="10"/>
<path d="M594.432 216.573L589.107 219.114C520.302 251.812 445.894 271.618 369.698 277.517V277.517" stroke="url(#paint31_linear_37_254)" stroke-opacity="0.35" stroke-miterlimit="10"/>
<path d="M600.7 242.535L595.156 244.688C523.641 271.187 447.727 284.364 371.299 283.545V283.545" stroke="url(#paint32_linear_37_254)" stroke-opacity="0.35" stroke-miterlimit="10"/>
<path d="M604.557 268.928L598.86 270.478C525.215 290.583 448.399 297.022 372.351 289.465V289.465" stroke="url(#paint33_linear_37_254)" stroke-opacity="0.35" stroke-miterlimit="10"/>
<path d="M606 295.557L600.171 296.612C524.99 310.138 447.9 309.78 372.852 295.557" stroke="url(#paint34_linear_37_254)" stroke-opacity="0.35" stroke-miterlimit="10"/>
<path d="M604.993 322.207L599.098 322.745C522.991 329.591 446.251 322.444 372.809 301.67V301.67" stroke="url(#paint35_linear_37_254)" stroke-opacity="0.35" stroke-miterlimit="10"/>
<path d="M601.578 348.664H595.661C519.218 348.804 443.42 334.933 372.155 307.763V307.763" stroke="url(#paint36_linear_37_254)" stroke-opacity="0.35" stroke-miterlimit="10"/>
<path d="M595.747 374.713L589.852 374.196C513.756 367.571 439.581 347.079 371.123 313.769V313.769" stroke="url(#paint37_linear_37_254)" stroke-opacity="0.35" stroke-miterlimit="10"/>
<path d="M587.572 400.136L581.743 399.103C506.477 385.841 434.393 358.894 369.192 319.646V319.646" stroke="url(#paint38_linear_37_254)" stroke-opacity="0.35" stroke-miterlimit="10"/>
<path d="M577.101 424.742L571.382 423.192C497.675 403.344 428.38 370.171 367.049 325.372V325.372" stroke="url(#paint39_linear_37_254)" stroke-opacity="0.35" stroke-miterlimit="10"/>
<path d="M564.458 448.335L558.892 446.183C487.297 419.912 421.31 380.768 364.309 330.754V330.754" stroke="url(#paint40_linear_37_254)" stroke-opacity="0.35" stroke-miterlimit="10"/>
<path d="M549.688 470.702L544.341 468.183C475.421 435.723 413.266 390.919 361.066 336.071V336.071" stroke="url(#paint41_linear_37_254)" stroke-opacity="0.35" stroke-miterlimit="10"/>
<path d="M532.926 491.67L527.842 488.677C462.166 450.282 404.352 400.193 357.363 340.979V340.979" stroke="url(#paint42_linear_37_254)" stroke-opacity="0.35" stroke-miterlimit="10"/>
<path d="M514.321 511.044L509.522 507.621C447.617 463.595 394.611 408.615 353.221 345.5V345.5" stroke="url(#paint43_linear_37_254)" stroke-opacity="0.35" stroke-miterlimit="10"/>
<path d="M494.032 528.826L489.649 524.994C432.007 475.69 384.232 416.256 348.774 349.741V349.741" stroke="url(#paint44_linear_37_254)" stroke-opacity="0.35" stroke-miterlimit="10"/>
<path d="M472.204 544.67L468.107 540.364C415.189 486.181 373.024 422.775 343.776 353.4V353.4" stroke="url(#paint45_linear_37_254)" stroke-opacity="0.35" stroke-miterlimit="10"/>
<path d="M449.02 558.534L445.316 554.099C397.562 495.473 361.351 428.616 338.537 356.953V356.953" stroke="url(#paint46_linear_37_254)" stroke-opacity="0.35" stroke-miterlimit="10"/>
<path d="M424.653 570.287L421.388 565.444C379.17 502.852 349.207 433.073 333.037 359.687V359.687" stroke="url(#paint47_linear_37_254)" stroke-opacity="0.35" stroke-miterlimit="10"/>
<path d="M399.324 579.931L396.52 574.808C360.171 508.732 336.696 436.571 327.298 362.033V362.033" stroke="url(#paint48_linear_37_254)" stroke-opacity="0.35" stroke-miterlimit="10"/>
<path d="M373.315 587.186L370.97 581.826C340.816 512.834 324.014 438.925 321.426 363.884V363.884" stroke="url(#paint49_linear_37_254)" stroke-opacity="0.35" stroke-miterlimit="10"/>
<path d="M346.561 592.158L344.72 586.626C320.965 515.252 310.977 440.149 315.27 365.176V365.176" stroke="url(#paint50_linear_37_254)" stroke-opacity="0.35" stroke-miterlimit="10"/>
<path d="M319.542 594.764L318.205 589.08C301.071 515.908 297.979 440.237 309.09 365.951V365.951" stroke="url(#paint51_linear_37_254)" stroke-opacity="0.35" stroke-miterlimit="10"/>
<path d="M292.393 595L291.582 589.231C281.199 514.84 285.026 439.2 302.867 366.188V366.188" stroke="url(#paint52_linear_37_254)" stroke-opacity="0.35" stroke-miterlimit="10"/>
<path d="M265.35 592.848L265.065 587.035C261.495 512.019 272.196 437.006 296.619 365.843V365.843" stroke="url(#paint53_linear_37_254)" stroke-opacity="0.35" stroke-miterlimit="10"/>
<path d="M238.596 588.262L238.859 582.45C242.154 507.452 259.662 433.715 290.485 365.025V365.025" stroke="url(#paint54_linear_37_254)" stroke-opacity="0.35" stroke-miterlimit="10"/>
<path d="M212.369 581.373L213.158 575.604C223.285 501.178 247.451 429.261 284.417 363.54V363.54" stroke="url(#paint55_linear_37_254)" stroke-opacity="0.35" stroke-miterlimit="10"/>
<path d="M186.883 572.203L188.198 566.52C205.074 493.291 235.706 423.797 278.521 361.602V361.602" stroke="url(#paint56_linear_37_254)" stroke-opacity="0.35" stroke-miterlimit="10"/>
<path d="M162.343 560.837L164.162 555.283C187.645 483.836 224.489 417.32 272.803 359.149V359.149" stroke="url(#paint57_linear_37_254)" stroke-opacity="0.35" stroke-miterlimit="10"/>
<path d="M138.852 547.339L141.174 541.979C171.091 472.89 213.857 409.887 267.28 356.199V356.199" stroke="url(#paint58_linear_37_254)" stroke-opacity="0.35" stroke-miterlimit="10"/>
<path d="M116.938 531.839L119.743 526.716C155.846 460.54 204.184 401.554 262.284 352.776V352.776" stroke="url(#paint59_linear_37_254)" stroke-opacity="0.35" stroke-miterlimit="10"/>
<path d="M96.2333 514.467L99.4106 509.602C141.377 446.874 194.881 392.383 257.18 348.923V348.923" stroke="url(#paint60_linear_37_254)" stroke-opacity="0.35" stroke-miterlimit="10"/>
<path d="M77.321 495.351L81.0023 490.787C128.526 432.007 186.785 382.445 252.796 344.639V344.639" stroke="url(#paint61_linear_37_254)" stroke-opacity="0.35" stroke-miterlimit="10"/>
<path d="M60.2279 474.62L64.3036 470.315C117.02 415.947 179.599 371.719 248.828 339.903V339.903" stroke="url(#paint62_linear_37_254)" stroke-opacity="0.35" stroke-miterlimit="10"/>
<path d="M45.0858 452.49L49.4683 448.658C106.939 399.16 173.298 360.621 245.146 335.016V335.016" stroke="url(#paint63_linear_37_254)" stroke-opacity="0.35" stroke-miterlimit="10"/>
<path d="M32.0281 429.112L36.8269 425.689C98.577 381.447 168.185 348.908 242.081 329.742V329.742" stroke="url(#paint64_linear_37_254)" stroke-opacity="0.35" stroke-miterlimit="10"/>
<path d="M21.1577 404.678L26.2414 401.686C91.7787 363.052 164.078 336.77 239.427 324.188V324.188" stroke="url(#paint65_linear_37_254)" stroke-opacity="0.35" stroke-miterlimit="10"/>
<path d="M12.5682 379.384L17.893 376.844C86.7018 344.159 161.109 324.361 237.302 318.462V318.462" stroke="url(#paint66_linear_37_254)" stroke-opacity="0.35" stroke-miterlimit="10"/>
<path d="M6.30298 353.444L11.8468 351.291C83.3655 324.817 159.282 311.676 235.704 312.542V312.542" stroke="url(#paint67_linear_37_254)" stroke-opacity="0.35" stroke-miterlimit="10"/>
<path d="M2.44666 327.051L8.14388 325.48C81.7865 305.4 158.593 298.975 234.631 306.536V306.536" stroke="url(#paint68_linear_37_254)" stroke-opacity="0.35" stroke-miterlimit="10"/>
<path d="M1 300.422L6.8287 299.367C82.0022 285.83 159.086 286.188 234.126 300.422V300.422" stroke="url(#paint69_linear_37_254)" stroke-opacity="0.35" stroke-miterlimit="10"/>
<defs>
<linearGradient id="paint0_linear_37_254" x1="118.088" y1="270.705" x2="118.088" y2="294.287" gradientUnits="userSpaceOnUse">
<stop offset="0.201042" stop-color="#C9278F"/>
<stop offset="0.508333" stop-color="#A53DE2"/>
</linearGradient>
<linearGradient id="paint1_linear_37_254" x1="120.137" y1="247.313" x2="120.137" y2="288.216" gradientUnits="userSpaceOnUse">
<stop offset="0.201042" stop-color="#C9278F"/>
<stop offset="0.508333" stop-color="#A53DE2"/>
</linearGradient>
<linearGradient id="paint2_linear_37_254" x1="123.61" y1="221.267" x2="123.61" y2="282.189" gradientUnits="userSpaceOnUse">
<stop offset="0.201042" stop-color="#C9278F"/>
<stop offset="0.508333" stop-color="#A53DE2"/>
</linearGradient>
<linearGradient id="paint3_linear_37_254" x1="128.618" y1="195.843" x2="128.618" y2="276.312" gradientUnits="userSpaceOnUse">
<stop offset="0.201042" stop-color="#C9278F"/>
<stop offset="0.508333" stop-color="#A53DE2"/>
</linearGradient>
<linearGradient id="paint4_linear_37_254" x1="134.906" y1="171.237" x2="134.906" y2="270.607" gradientUnits="userSpaceOnUse">
<stop offset="0.201042" stop-color="#C9278F"/>
<stop offset="0.508333" stop-color="#A53DE2"/>
</linearGradient>
<linearGradient id="paint5_linear_37_254" x1="142.622" y1="147.644" x2="142.622" y2="265.225" gradientUnits="userSpaceOnUse">
<stop offset="0.201042" stop-color="#C9278F"/>
<stop offset="0.508333" stop-color="#A53DE2"/>
</linearGradient>
<linearGradient id="paint6_linear_37_254" x1="151.625" y1="125.277" x2="151.625" y2="259.972" gradientUnits="userSpaceOnUse">
<stop offset="0.201042" stop-color="#C9278F"/>
<stop offset="0.508333" stop-color="#A53DE2"/>
</linearGradient>
<linearGradient id="paint7_linear_37_254" x1="161.859" y1="104.288" x2="161.859" y2="254.978" gradientUnits="userSpaceOnUse">
<stop offset="0.201042" stop-color="#C9278F"/>
<stop offset="0.508333" stop-color="#A53DE2"/>
</linearGradient>
<linearGradient id="paint8_linear_37_254" x1="173.221" y1="84.8053" x2="173.221" y2="250.35" gradientUnits="userSpaceOnUse">
<stop offset="0.201042" stop-color="#C9278F"/>
<stop offset="0.508333" stop-color="#A53DE2"/>
</linearGradient>
<linearGradient id="paint9_linear_37_254" x1="185.59" y1="67.1532" x2="185.59" y2="246.217" gradientUnits="userSpaceOnUse">
<stop offset="0.201042" stop-color="#C9278F"/>
<stop offset="0.508333" stop-color="#A53DE2"/>
</linearGradient>
<linearGradient id="paint10_linear_37_254" x1="198.991" y1="51.3094" x2="198.991" y2="242.449" gradientUnits="userSpaceOnUse">
<stop offset="0.201042" stop-color="#C9278F"/>
<stop offset="0.508333" stop-color="#A53DE2"/>
</linearGradient>
<linearGradient id="paint11_linear_37_254" x1="213.223" y1="37.4454" x2="213.223" y2="239.134" gradientUnits="userSpaceOnUse">
<stop offset="0.201042" stop-color="#C9278F"/>
<stop offset="0.508333" stop-color="#A53DE2"/>
</linearGradient>
<linearGradient id="paint12_linear_37_254" x1="228.155" y1="25.6702" x2="228.155" y2="236.292" gradientUnits="userSpaceOnUse">
<stop offset="0.201042" stop-color="#C9278F"/>
<stop offset="0.508333" stop-color="#A53DE2"/>
</linearGradient>
<linearGradient id="paint13_linear_37_254" x1="243.692" y1="16.0907" x2="243.692" y2="233.924" gradientUnits="userSpaceOnUse">
<stop offset="0.201042" stop-color="#C9278F"/>
<stop offset="0.508333" stop-color="#A53DE2"/>
</linearGradient>
<linearGradient id="paint14_linear_37_254" x1="259.721" y1="8.79321" x2="259.721" y2="232.095" gradientUnits="userSpaceOnUse">
<stop offset="0.201042" stop-color="#C9278F"/>
<stop offset="0.508333" stop-color="#A53DE2"/>
</linearGradient>
<linearGradient id="paint15_linear_37_254" x1="276.572" y1="3.82031" x2="276.572" y2="230.889" gradientUnits="userSpaceOnUse">
<stop offset="0.201042" stop-color="#C9278F"/>
<stop offset="0.508333" stop-color="#A53DE2"/>
</linearGradient>
<linearGradient id="paint16_linear_37_254" x1="295.948" y1="1.2157" x2="295.948" y2="230.028" gradientUnits="userSpaceOnUse">
<stop offset="0.201042" stop-color="#C9278F"/>
<stop offset="0.508333" stop-color="#A53DE2"/>
</linearGradient>
<linearGradient id="paint17_linear_37_254" x1="312.621" y1="1" x2="312.621" y2="229.813" gradientUnits="userSpaceOnUse">
<stop offset="0.201042" stop-color="#C9278F"/>
<stop offset="0.508333" stop-color="#A53DE2"/>
</linearGradient>
<linearGradient id="paint18_linear_37_254" x1="326.48" y1="3.17432" x2="326.48" y2="230.136" gradientUnits="userSpaceOnUse">
<stop offset="0.201042" stop-color="#C9278F"/>
<stop offset="0.508333" stop-color="#A53DE2"/>
</linearGradient>
<linearGradient id="paint19_linear_37_254" x1="342.461" y1="7.71667" x2="342.461" y2="230.954" gradientUnits="userSpaceOnUse">
<stop offset="0.201042" stop-color="#C9278F"/>
<stop offset="0.508333" stop-color="#A53DE2"/>
</linearGradient>
<linearGradient id="paint20_linear_37_254" x1="358.61" y1="14.6055" x2="358.61" y2="232.439" gradientUnits="userSpaceOnUse">
<stop offset="0.201042" stop-color="#C9278F"/>
<stop offset="0.508333" stop-color="#A53DE2"/>
</linearGradient>
<linearGradient id="paint21_linear_37_254" x1="374.298" y1="23.776" x2="374.298" y2="234.377" gradientUnits="userSpaceOnUse">
<stop offset="0.201042" stop-color="#C9278F"/>
<stop offset="0.508333" stop-color="#A53DE2"/>
</linearGradient>
<linearGradient id="paint22_linear_37_254" x1="389.431" y1="35.1425" x2="389.431" y2="236.831" gradientUnits="userSpaceOnUse">
<stop offset="0.201042" stop-color="#C9278F"/>
<stop offset="0.508333" stop-color="#A53DE2"/>
</linearGradient>
<linearGradient id="paint23_linear_37_254" x1="403.872" y1="48.6395" x2="403.872" y2="239.801" gradientUnits="userSpaceOnUse">
<stop offset="0.201042" stop-color="#C9278F"/>
<stop offset="0.508333" stop-color="#A53DE2"/>
</linearGradient>
<linearGradient id="paint24_linear_37_254" x1="417.501" y1="64.118" x2="417.501" y2="243.203" gradientUnits="userSpaceOnUse">
<stop offset="0.201042" stop-color="#C9278F"/>
<stop offset="0.508333" stop-color="#A53DE2"/>
</linearGradient>
<linearGradient id="paint25_linear_37_254" x1="430.244" y1="81.5117" x2="430.244" y2="247.056" gradientUnits="userSpaceOnUse">
<stop offset="0.201042" stop-color="#C9278F"/>
<stop offset="0.508333" stop-color="#A53DE2"/>
</linearGradient>
<linearGradient id="paint26_linear_37_254" x1="441.89" y1="100.628" x2="441.89" y2="251.318" gradientUnits="userSpaceOnUse">
<stop offset="0.201042" stop-color="#C9278F"/>
<stop offset="0.508333" stop-color="#A53DE2"/>
</linearGradient>
<linearGradient id="paint27_linear_37_254" x1="452.462" y1="121.402" x2="452.462" y2="256.119" gradientUnits="userSpaceOnUse">
<stop offset="0.201042" stop-color="#C9278F"/>
<stop offset="0.508333" stop-color="#A53DE2"/>
</linearGradient>
<linearGradient id="paint28_linear_37_254" x1="461.805" y1="143.467" x2="461.805" y2="260.855" gradientUnits="userSpaceOnUse">
<stop offset="0.201042" stop-color="#C9278F"/>
<stop offset="0.508333" stop-color="#A53DE2"/>
</linearGradient>
<linearGradient id="paint29_linear_37_254" x1="469.884" y1="166.846" x2="469.884" y2="266.237" gradientUnits="userSpaceOnUse">
<stop offset="0.201042" stop-color="#C9278F"/>
<stop offset="0.508333" stop-color="#A53DE2"/>
</linearGradient>
<linearGradient id="paint30_linear_37_254" x1="476.731" y1="191.3" x2="476.731" y2="271.791" gradientUnits="userSpaceOnUse">
<stop offset="0.201042" stop-color="#C9278F"/>
<stop offset="0.508333" stop-color="#A53DE2"/>
</linearGradient>
<linearGradient id="paint31_linear_37_254" x1="482.065" y1="216.573" x2="482.065" y2="277.517" gradientUnits="userSpaceOnUse">
<stop offset="0.201042" stop-color="#C9278F"/>
<stop offset="0.508333" stop-color="#A53DE2"/>
</linearGradient>
<linearGradient id="paint32_linear_37_254" x1="485.999" y1="242.535" x2="485.999" y2="283.58" gradientUnits="userSpaceOnUse">
<stop offset="0.201042" stop-color="#C9278F"/>
<stop offset="0.508333" stop-color="#A53DE2"/>
</linearGradient>
<linearGradient id="paint33_linear_37_254" x1="488.454" y1="268.928" x2="488.454" y2="292.532" gradientUnits="userSpaceOnUse">
<stop offset="0.201042" stop-color="#C9278F"/>
<stop offset="0.508333" stop-color="#A53DE2"/>
</linearGradient>
<linearGradient id="paint34_linear_37_254" x1="489.426" y1="295.557" x2="489.426" y2="306.497" gradientUnits="userSpaceOnUse">
<stop offset="0.201042" stop-color="#C9278F"/>
<stop offset="0.508333" stop-color="#A53DE2"/>
</linearGradient>
<linearGradient id="paint35_linear_37_254" x1="488.901" y1="301.67" x2="488.901" y2="325.263" gradientUnits="userSpaceOnUse">
<stop offset="0.201042" stop-color="#C9278F"/>
<stop offset="0.508333" stop-color="#A53DE2"/>
</linearGradient>
<linearGradient id="paint36_linear_37_254" x1="486.866" y1="307.763" x2="486.866" y2="348.665" gradientUnits="userSpaceOnUse">
<stop offset="0.201042" stop-color="#C9278F"/>
<stop offset="0.508333" stop-color="#A53DE2"/>
</linearGradient>
<linearGradient id="paint37_linear_37_254" x1="483.435" y1="313.769" x2="483.435" y2="374.713" gradientUnits="userSpaceOnUse">
<stop offset="0.201042" stop-color="#C9278F"/>
<stop offset="0.508333" stop-color="#A53DE2"/>
</linearGradient>
<linearGradient id="paint38_linear_37_254" x1="478.382" y1="319.646" x2="478.382" y2="400.136" gradientUnits="userSpaceOnUse">
<stop offset="0.201042" stop-color="#C9278F"/>
<stop offset="0.508333" stop-color="#A53DE2"/>
</linearGradient>
<linearGradient id="paint39_linear_37_254" x1="472.075" y1="325.372" x2="472.075" y2="424.742" gradientUnits="userSpaceOnUse">
<stop offset="0.201042" stop-color="#C9278F"/>
<stop offset="0.508333" stop-color="#A53DE2"/>
</linearGradient>
<linearGradient id="paint40_linear_37_254" x1="464.383" y1="330.754" x2="464.383" y2="448.335" gradientUnits="userSpaceOnUse">
<stop offset="0.201042" stop-color="#C9278F"/>
<stop offset="0.508333" stop-color="#A53DE2"/>
</linearGradient>
<linearGradient id="paint41_linear_37_254" x1="455.377" y1="336.071" x2="455.377" y2="470.702" gradientUnits="userSpaceOnUse">
<stop offset="0.201042" stop-color="#C9278F"/>
<stop offset="0.508333" stop-color="#A53DE2"/>
</linearGradient>
<linearGradient id="paint42_linear_37_254" x1="445.145" y1="340.979" x2="445.145" y2="491.67" gradientUnits="userSpaceOnUse">
<stop offset="0.201042" stop-color="#C9278F"/>
<stop offset="0.508333" stop-color="#A53DE2"/>
</linearGradient>
<linearGradient id="paint43_linear_37_254" x1="433.771" y1="345.5" x2="433.771" y2="511.044" gradientUnits="userSpaceOnUse">
<stop offset="0.201042" stop-color="#C9278F"/>
<stop offset="0.508333" stop-color="#A53DE2"/>
</linearGradient>
<linearGradient id="paint44_linear_37_254" x1="421.403" y1="349.741" x2="421.403" y2="528.826" gradientUnits="userSpaceOnUse">
<stop offset="0.201042" stop-color="#C9278F"/>
<stop offset="0.508333" stop-color="#A53DE2"/>
</linearGradient>
<linearGradient id="paint45_linear_37_254" x1="407.99" y1="353.4" x2="407.99" y2="544.67" gradientUnits="userSpaceOnUse">
<stop offset="0.201042" stop-color="#C9278F"/>
<stop offset="0.508333" stop-color="#A53DE2"/>
</linearGradient>
<linearGradient id="paint46_linear_37_254" x1="393.778" y1="356.953" x2="393.778" y2="558.534" gradientUnits="userSpaceOnUse">
<stop offset="0.201042" stop-color="#C9278F"/>
<stop offset="0.508333" stop-color="#A53DE2"/>
</linearGradient>
<linearGradient id="paint47_linear_37_254" x1="378.845" y1="359.687" x2="378.845" y2="570.287" gradientUnits="userSpaceOnUse">
<stop offset="0.201042" stop-color="#C9278F"/>
<stop offset="0.508333" stop-color="#A53DE2"/>
</linearGradient>
<linearGradient id="paint48_linear_37_254" x1="363.311" y1="362.033" x2="363.311" y2="579.931" gradientUnits="userSpaceOnUse">
<stop offset="0.201042" stop-color="#C9278F"/>
<stop offset="0.508333" stop-color="#A53DE2"/>
</linearGradient>
<linearGradient id="paint49_linear_37_254" x1="347.37" y1="363.884" x2="347.37" y2="587.186" gradientUnits="userSpaceOnUse">
<stop offset="0.201042" stop-color="#C9278F"/>
<stop offset="0.508333" stop-color="#A53DE2"/>
</linearGradient>
<linearGradient id="paint50_linear_37_254" x1="330.43" y1="365.176" x2="330.43" y2="592.158" gradientUnits="userSpaceOnUse">
<stop offset="0.201042" stop-color="#C9278F"/>
<stop offset="0.508333" stop-color="#A53DE2"/>
</linearGradient>
<linearGradient id="paint51_linear_37_254" x1="311.052" y1="365.951" x2="311.052" y2="594.764" gradientUnits="userSpaceOnUse">
<stop offset="0.201042" stop-color="#C9278F"/>
<stop offset="0.508333" stop-color="#A53DE2"/>
</linearGradient>
<linearGradient id="paint52_linear_37_254" x1="294.375" y1="366.188" x2="294.375" y2="595" gradientUnits="userSpaceOnUse">
<stop offset="0.201042" stop-color="#C9278F"/>
<stop offset="0.508333" stop-color="#A53DE2"/>
</linearGradient>
<linearGradient id="paint53_linear_37_254" x1="280.506" y1="365.843" x2="280.506" y2="592.848" gradientUnits="userSpaceOnUse">
<stop offset="0.201042" stop-color="#C9278F"/>
<stop offset="0.508333" stop-color="#A53DE2"/>
</linearGradient>
<linearGradient id="paint54_linear_37_254" x1="264.541" y1="365.025" x2="264.541" y2="588.262" gradientUnits="userSpaceOnUse">
<stop offset="0.201042" stop-color="#C9278F"/>
<stop offset="0.508333" stop-color="#A53DE2"/>
</linearGradient>
<linearGradient id="paint55_linear_37_254" x1="248.393" y1="363.54" x2="248.393" y2="581.373" gradientUnits="userSpaceOnUse">
<stop offset="0.201042" stop-color="#C9278F"/>
<stop offset="0.508333" stop-color="#A53DE2"/>
</linearGradient>
<linearGradient id="paint56_linear_37_254" x1="232.702" y1="361.602" x2="232.702" y2="572.203" gradientUnits="userSpaceOnUse">
<stop offset="0.201042" stop-color="#C9278F"/>
<stop offset="0.508333" stop-color="#A53DE2"/>
</linearGradient>
<linearGradient id="paint57_linear_37_254" x1="217.573" y1="359.149" x2="217.573" y2="560.837" gradientUnits="userSpaceOnUse">
<stop offset="0.201042" stop-color="#C9278F"/>
<stop offset="0.508333" stop-color="#A53DE2"/>
</linearGradient>
<linearGradient id="paint58_linear_37_254" x1="203.066" y1="356.199" x2="203.066" y2="547.339" gradientUnits="userSpaceOnUse">
<stop offset="0.201042" stop-color="#C9278F"/>
<stop offset="0.508333" stop-color="#A53DE2"/>
</linearGradient>
<linearGradient id="paint59_linear_37_254" x1="189.611" y1="352.776" x2="189.611" y2="531.839" gradientUnits="userSpaceOnUse">
<stop offset="0.201042" stop-color="#C9278F"/>
<stop offset="0.508333" stop-color="#A53DE2"/>
</linearGradient>
<linearGradient id="paint60_linear_37_254" x1="176.707" y1="348.923" x2="176.707" y2="514.467" gradientUnits="userSpaceOnUse">
<stop offset="0.201042" stop-color="#C9278F"/>
<stop offset="0.508333" stop-color="#A53DE2"/>
</linearGradient>
<linearGradient id="paint61_linear_37_254" x1="165.058" y1="344.639" x2="165.058" y2="495.351" gradientUnits="userSpaceOnUse">
<stop offset="0.201042" stop-color="#C9278F"/>
<stop offset="0.508333" stop-color="#A53DE2"/>
</linearGradient>
<linearGradient id="paint62_linear_37_254" x1="154.528" y1="339.903" x2="154.528" y2="474.62" gradientUnits="userSpaceOnUse">
<stop offset="0.201042" stop-color="#C9278F"/>
<stop offset="0.508333" stop-color="#A53DE2"/>
</linearGradient>
<linearGradient id="paint63_linear_37_254" x1="145.116" y1="335.016" x2="145.116" y2="452.49" gradientUnits="userSpaceOnUse">
<stop offset="0.201042" stop-color="#C9278F"/>
<stop offset="0.508333" stop-color="#A53DE2"/>
</linearGradient>
<linearGradient id="paint64_linear_37_254" x1="137.054" y1="329.742" x2="137.054" y2="429.112" gradientUnits="userSpaceOnUse">
<stop offset="0.201042" stop-color="#C9278F"/>
<stop offset="0.508333" stop-color="#A53DE2"/>
</linearGradient>
<linearGradient id="paint65_linear_37_254" x1="130.293" y1="324.188" x2="130.293" y2="404.678" gradientUnits="userSpaceOnUse">
<stop offset="0.201042" stop-color="#C9278F"/>
<stop offset="0.508333" stop-color="#A53DE2"/>
</linearGradient>
<linearGradient id="paint66_linear_37_254" x1="124.935" y1="318.462" x2="124.935" y2="379.384" gradientUnits="userSpaceOnUse">
<stop offset="0.201042" stop-color="#C9278F"/>
<stop offset="0.508333" stop-color="#A53DE2"/>
</linearGradient>
<linearGradient id="paint67_linear_37_254" x1="121.004" y1="312.502" x2="121.004" y2="353.444" gradientUnits="userSpaceOnUse">
<stop offset="0.201042" stop-color="#C9278F"/>
<stop offset="0.508333" stop-color="#A53DE2"/>
</linearGradient>
<linearGradient id="paint68_linear_37_254" x1="118.539" y1="303.464" x2="118.539" y2="327.051" gradientUnits="userSpaceOnUse">
<stop offset="0.201042" stop-color="#C9278F"/>
<stop offset="0.508333" stop-color="#A53DE2"/>
</linearGradient>
<linearGradient id="paint69_linear_37_254" x1="117.563" y1="289.474" x2="117.563" y2="300.422" gradientUnits="userSpaceOnUse">
<stop offset="0.201042" stop-color="#C9278F"/>
<stop offset="0.508333" stop-color="#A53DE2"/>
</linearGradient>
</defs>
</svg>
