<svg width="96" height="25" viewBox="0 0 96 25" fill="none" xmlns="http://www.w3.org/2000/svg">
<path d="M30.9925 10.0693C30.9925 8.3561 29.3209 6.53866 26.4226 6.53866C23.1668 6.53866 19.5956 8.90743 19.0428 13.6408C18.4849 18.4263 21.4829 20.5409 24.4952 20.5409C27.5065 20.5409 29.0918 19.3749 30.7017 17.8117C29.3116 16.0719 27.5188 16.8816 27.1798 17.0511C26.8048 17.2379 26.3127 17.4962 25.313 17.4962C24.1459 17.4962 22.9623 16.9714 22.9623 14.8181C30.4233 14.1074 30.9925 11.7836 30.9925 10.0693ZM27.2949 10.3563C27.2466 10.8841 27.0287 11.7979 23.2531 12.3003C24.0493 9.4904 25.5678 9.28214 26.2695 9.28214C26.9271 9.28214 27.3462 9.78854 27.2949 10.3563ZM14.6579 10.8126C14.6579 10.8126 13.0531 15.8136 12.9287 16.2332C12.8856 15.8136 11.7113 6.83071 11.7113 6.83071C8.9784 6.83071 7.51642 8.76044 6.74589 10.8106C6.74589 10.8106 4.79381 15.8258 4.6356 16.2455C4.62638 15.8524 4.3356 10.8627 4.3356 10.8627C4.17019 8.35503 1.86678 6.8368 0 6.8368L2.24487 20.4459C5.11232 20.4367 6.64724 18.5101 7.45686 16.464C7.45686 16.464 9.17362 12.0389 9.24455 11.8378C9.26198 12.0297 10.4795 20.4459 10.4795 20.4459C13.349 20.4459 14.8972 18.6418 15.7305 16.6692L19.7569 6.8368C16.9213 6.8368 15.4284 8.76144 14.6579 10.8126ZM41.5315 6.52027C39.7675 6.52027 38.4082 7.47292 37.2637 8.88088L37.2657 8.87065L38.2829 0.693359C35.9343 0.693359 34.0151 2.72521 33.6503 5.73921L31.8637 20.3397C33.2188 20.3397 34.6541 19.9487 35.4287 18.9593C36.1223 19.8445 37.1528 20.5501 38.6784 20.5501C42.639 20.5501 45.3616 15.9749 45.3616 11.6795C45.3616 7.75983 43.4425 6.52027 41.5315 6.52027ZM41.1678 13.5347C40.7569 15.9361 39.4141 17.5554 38.1133 17.5554C36.8024 17.5554 36.2486 16.9796 36.2486 16.9796C36.4931 14.8804 36.6555 13.5929 37.1332 12.4841C37.61 11.3752 38.737 9.60583 39.9164 9.60583C41.063 9.60583 41.5788 11.1343 41.1678 13.5347ZM55.2904 6.83786H52.5175L52.5308 6.69388C52.7198 4.89483 53.1534 3.95039 54.5569 3.8054C55.5154 3.70743 55.949 3.21221 56.0497 2.67719C56.1288 2.25754 56.3969 0.774013 56.3969 0.774013C50.8346 0.742379 49.0911 3.12848 48.6462 6.75514L48.6359 6.8368L48.5815 6.83887C47.6784 6.83887 46.687 7.85479 46.5133 9.14531L46.4528 9.62007H48.3021L46.7497 22.392L46.2791 24.6872L46.4702 24.6934C49.0664 24.5953 50.737 22.5605 51.1059 19.5975L52.3182 9.62007H53.1873C54.038 9.62007 55.0377 8.77267 55.2226 7.35649L55.2904 6.83786ZM69.6802 6.60098C66.4851 6.60098 63.4737 8.93806 62.5478 12.6147C61.6232 16.2904 63.0291 20.6307 67.7248 20.6307C72.4225 20.6307 75.1213 16.1066 75.1213 12.3503C75.1213 8.59191 72.5653 6.60098 69.6802 6.60098ZM70.9756 13.4254C70.8101 15.0927 70.0705 17.6116 68.0488 17.6116C66.0183 17.6116 66.3069 14.6558 66.5034 13.2529C66.7143 11.7489 67.5644 9.62007 69.3739 9.62007C71.0084 9.62007 71.1625 11.5426 70.9756 13.4254ZM90.9 10.8126C90.9 10.8126 89.2952 15.8136 89.172 16.2332C89.1278 15.8136 87.9537 6.83071 87.9537 6.83071C85.2208 6.83071 83.7594 8.76044 82.9882 10.8106C82.9882 10.8106 81.0373 15.8258 80.8787 16.2455C80.8693 15.8524 80.5787 10.8627 80.5787 10.8627C80.4133 8.35503 78.1086 6.8368 76.2429 6.8368L78.4869 20.4459C81.3543 20.4367 82.8903 18.5101 83.7 16.464C83.7 16.464 85.4166 12.0389 85.4874 11.8378C85.505 12.0297 86.7215 20.4459 86.7215 20.4459C89.5914 20.4459 91.1394 18.6418 91.9724 16.6692L96 6.8368C93.1636 6.8368 91.6705 8.76144 90.9 10.8126ZM57.9 0.774013L55.5719 19.4341L55.5657 19.431L55.0931 21.7385L55.2832 21.7446C57.79 21.714 59.5685 19.5281 59.9034 16.7713L61.248 6.06082C61.656 2.79871 59.699 0.774013 57.9 0.774013Z" fill="#F8F8F8" fill-opacity="0.3"/>
</svg>
